<svg width="100" height="100" viewBox="0 0 100 100" fill="none" xmlns="http://www.w3.org/2000/svg">
<g clip-path="url(#clip0_1005_2)">
<rect width="100" height="100" rx="20" fill="black"/>
<path d="M20.1761 49.4545V46.6364C22.7064 46.6364 24.4716 46.1061 25.4716 45.0455C26.4867 43.9848 26.9943 42.2121 26.9943 39.7273V32.4545C26.9943 30.3636 27.1913 28.553 27.5852 27.0227C27.9943 25.4924 28.6534 24.2273 29.5625 23.2273C30.4716 22.2273 31.6837 21.4848 33.1989 21C34.714 20.5151 36.5852 20.2727 38.8125 20.2727V24.7273C37.0549 24.7273 35.6686 25 34.6534 25.5455C33.6534 26.0909 32.9413 26.9394 32.517 28.0909C32.108 29.2273 31.9034 30.6818 31.9034 32.4545V41.5455C31.9034 42.7273 31.7443 43.803 31.4261 44.7727C31.1231 45.7424 30.5549 46.5758 29.7216 47.2727C28.8883 47.9697 27.6989 48.5076 26.1534 48.8864C24.6231 49.2652 22.6307 49.4545 20.1761 49.4545ZM38.8125 78.4545C36.5852 78.4545 34.714 78.2121 33.1989 77.7273C31.6837 77.2424 30.4716 76.5 29.5625 75.5C28.6534 74.5 27.9943 73.2348 27.5852 71.7045C27.1913 70.1742 26.9943 68.3636 26.9943 66.2727V59C26.9943 56.5152 26.4867 54.7424 25.4716 53.6818C24.4716 52.6212 22.7064 52.0909 20.1761 52.0909V49.2727C22.6307 49.2727 24.6231 49.4621 26.1534 49.8409C27.6989 50.2197 28.8883 50.7576 29.7216 51.4545C30.5549 52.1515 31.1231 52.9848 31.4261 53.9545C31.7443 54.9242 31.9034 56 31.9034 57.1818V66.2727C31.9034 68.0455 32.108 69.5 32.517 70.6364C32.9413 71.7727 33.6534 72.6136 34.6534 73.1591C35.6686 73.7197 37.0549 74 38.8125 74V78.4545ZM20.1761 52.0909V46.6364H25.5398V52.0909H20.1761ZM79.8182 49.2727V52.0909C77.2879 52.0909 75.5152 52.6212 74.5 53.6818C73.5 54.7424 73 56.5152 73 59V66.2727C73 68.3636 72.7955 70.1742 72.3864 71.7045C71.9924 73.2348 71.3409 74.5 70.4318 75.5C69.5227 76.5 68.3106 77.2424 66.7955 77.7273C65.2803 78.2121 63.4091 78.4545 61.1818 78.4545V74C62.9394 74 64.3182 73.7197 65.3182 73.1591C66.3333 72.6136 67.0455 71.7727 67.4545 70.6364C67.8788 69.5 68.0909 68.0455 68.0909 66.2727V57.1818C68.0909 56 68.2424 54.9242 68.5455 53.9545C68.8636 52.9848 69.4394 52.1515 70.2727 51.4545C71.1061 50.7576 72.2879 50.2197 73.8182 49.8409C75.3636 49.4621 77.3636 49.2727 79.8182 49.2727ZM61.1818 20.2727C63.4091 20.2727 65.2803 20.5151 66.7955 21C68.3106 21.4848 69.5227 22.2273 70.4318 23.2273C71.3409 24.2273 71.9924 25.4924 72.3864 27.0227C72.7955 28.553 73 30.3636 73 32.4545V39.7273C73 42.2121 73.5 43.9848 74.5 45.0455C75.5152 46.1061 77.2879 46.6364 79.8182 46.6364V49.4545C77.3636 49.4545 75.3636 49.2652 73.8182 48.8864C72.2879 48.5076 71.1061 47.9697 70.2727 47.2727C69.4394 46.5758 68.8636 45.7424 68.5455 44.7727C68.2424 43.803 68.0909 42.7273 68.0909 41.5455V32.4545C68.0909 30.6818 67.8788 29.2273 67.4545 28.0909C67.0455 26.9394 66.3333 26.0909 65.3182 25.5455C64.3182 25 62.9394 24.7273 61.1818 24.7273V20.2727ZM79.8182 46.6364V52.0909H74.4545V46.6364H79.8182Z" fill="white"/>
<path d="M51.7645 19.9176V79.7188H48.2133V19.9176H51.7645Z" fill="white"/>
</g>
<defs>
<clipPath id="clip0_1005_2">
<rect width="100" height="100" fill="white"/>
</clipPath>
</defs>
</svg>
